<svg width="1518" height="850" viewBox="0 0 1518 850" fill="none" xmlns="http://www.w3.org/2000/svg">
<path d="M19.8864 757V538.818H94.3182V580.295H96.5909C101.136 566.659 108.902 555.864 119.886 547.909C130.871 539.955 143.939 535.977 159.091 535.977C174.432 535.977 187.642 540.049 198.722 548.193C209.801 556.242 216.477 566.943 218.75 580.295H221.023C224.716 566.943 232.576 556.242 244.602 548.193C256.629 540.049 270.739 535.977 286.932 535.977C307.86 535.977 324.811 542.701 337.784 556.148C350.852 569.595 357.386 587.492 357.386 609.841V757H278.977V629.727C278.977 620.163 276.563 612.682 271.733 607.284C266.903 601.792 260.417 599.045 252.273 599.045C244.223 599.045 237.831 601.792 233.097 607.284C228.456 612.682 226.136 620.163 226.136 629.727V757H151.136V629.727C151.136 620.163 148.722 612.682 143.892 607.284C139.063 601.792 132.576 599.045 124.432 599.045C119.034 599.045 114.394 600.277 110.511 602.739C106.629 605.201 103.598 608.752 101.42 613.392C99.3371 617.937 98.2955 623.383 98.2955 629.727V757H19.8864ZM500.604 760.977C477.308 760.977 457.232 756.527 440.376 747.625C423.615 738.629 410.689 725.75 401.598 708.989C392.602 692.133 388.104 671.962 388.104 648.477C388.104 625.939 392.649 606.242 401.74 589.386C410.831 572.53 423.662 559.415 440.234 550.04C456.806 540.665 476.361 535.977 498.899 535.977C515.376 535.977 530.291 538.534 543.643 543.648C556.996 548.761 568.407 556.195 577.876 565.949C587.346 575.608 594.638 587.35 599.751 601.176C604.865 615.002 607.422 630.58 607.422 647.909V666.091H412.536V622.909H535.263C535.168 616.659 533.558 611.167 530.433 606.432C527.403 601.602 523.284 597.862 518.075 595.21C512.962 592.464 507.138 591.091 500.604 591.091C494.259 591.091 488.435 592.464 483.132 595.21C477.829 597.862 473.568 601.555 470.348 606.29C467.223 611.025 465.566 616.564 465.376 622.909V669.5C465.376 676.508 466.844 682.758 469.78 688.25C472.715 693.742 476.929 698.051 482.422 701.176C487.914 704.301 494.543 705.864 502.308 705.864C507.706 705.864 512.63 705.106 517.081 703.591C521.626 702.076 525.509 699.898 528.729 697.057C531.948 694.121 534.316 690.617 535.831 686.545H607.422C604.96 701.697 599.136 714.86 589.95 726.034C580.765 737.114 568.596 745.731 553.445 751.886C538.388 757.947 520.774 760.977 500.604 760.977ZM743.963 760.977C720.668 760.977 700.592 756.527 683.736 747.625C666.974 738.629 654.048 725.75 644.957 708.989C635.961 692.133 631.463 671.962 631.463 648.477C631.463 625.939 636.009 606.242 645.099 589.386C654.19 572.53 667.022 559.415 683.594 550.04C700.166 540.665 719.721 535.977 742.259 535.977C758.736 535.977 773.651 538.534 787.003 543.648C800.355 548.761 811.766 556.195 821.236 565.949C830.705 575.608 837.997 587.35 843.111 601.176C848.224 615.002 850.781 630.58 850.781 647.909V666.091H655.895V622.909H778.622C778.527 616.659 776.918 611.167 773.793 606.432C770.762 601.602 766.643 597.862 761.435 595.21C756.321 592.464 750.497 591.091 743.963 591.091C737.618 591.091 731.795 592.464 726.491 595.21C721.188 597.862 716.927 601.555 713.707 606.29C710.582 611.025 708.925 616.564 708.736 622.909V669.5C708.736 676.508 710.204 682.758 713.139 688.25C716.075 693.742 720.289 698.051 725.781 701.176C731.274 704.301 737.902 705.864 745.668 705.864C751.065 705.864 755.99 705.106 760.44 703.591C764.986 702.076 768.868 699.898 772.088 697.057C775.308 694.121 777.675 690.617 779.19 686.545H850.781C848.319 701.697 842.495 714.86 833.31 726.034C824.124 737.114 811.955 745.731 796.804 751.886C781.747 757.947 764.134 760.977 743.963 760.977ZM1012.89 538.818V595.636H869.141V538.818H1012.89ZM896.982 486.545H975.391V686.83C975.391 689.86 975.911 692.417 976.953 694.5C977.995 696.489 979.605 698.004 981.783 699.045C983.961 699.992 986.754 700.466 990.163 700.466C992.531 700.466 995.277 700.182 998.402 699.614C1001.62 699.045 1003.99 698.572 1005.5 698.193L1016.87 753.307C1013.36 754.348 1008.35 755.627 1001.81 757.142C995.372 758.657 987.701 759.652 978.8 760.125C960.807 761.072 945.703 759.225 933.487 754.585C921.271 749.85 912.086 742.417 905.93 732.284C899.775 722.152 896.792 709.462 896.982 694.216V486.545ZM1092.61 838.818C1083.62 838.818 1075.05 838.108 1066.9 836.688C1058.76 835.362 1051.61 833.515 1045.45 831.148L1062.5 775.466C1068.94 777.739 1074.81 779.206 1080.11 779.869C1085.51 780.532 1090.1 780.153 1093.89 778.733C1097.77 777.313 1100.57 774.614 1102.27 770.636L1103.98 766.659L1027.27 538.818H1109.09L1144.32 689.955H1146.59L1182.39 538.818H1264.77L1185.23 775.182C1181.25 787.208 1175.47 798.004 1167.9 807.568C1160.42 817.227 1150.57 824.85 1138.35 830.438C1126.14 836.025 1110.89 838.818 1092.61 838.818ZM1385.55 760.977C1361.87 760.977 1341.61 756.29 1324.75 746.915C1307.9 737.445 1294.97 724.282 1285.97 707.426C1276.98 690.475 1272.48 670.826 1272.48 648.477C1272.48 626.129 1276.98 606.527 1285.97 589.67C1294.97 572.72 1307.9 559.557 1324.75 550.182C1341.61 540.712 1361.87 535.977 1385.55 535.977C1409.22 535.977 1429.49 540.712 1446.34 550.182C1463.2 559.557 1476.12 572.72 1485.12 589.67C1494.12 606.527 1498.62 626.129 1498.62 648.477C1498.62 670.826 1494.12 690.475 1485.12 707.426C1476.12 724.282 1463.2 737.445 1446.34 746.915C1429.49 756.29 1409.22 760.977 1385.55 760.977ZM1386.12 703.023C1392.74 703.023 1398.47 700.797 1403.3 696.347C1408.13 691.896 1411.87 685.551 1414.52 677.312C1417.18 669.074 1418.5 659.273 1418.5 647.909C1418.5 636.451 1417.18 626.65 1414.52 618.506C1411.87 610.267 1408.13 603.922 1403.3 599.472C1398.47 595.021 1392.74 592.795 1386.12 592.795C1379.11 592.795 1373.09 595.021 1368.08 599.472C1363.06 603.922 1359.22 610.267 1356.57 618.506C1353.92 626.65 1352.59 636.451 1352.59 647.909C1352.59 659.273 1353.92 669.074 1356.57 677.312C1359.22 685.551 1363.06 691.896 1368.08 696.347C1373.09 700.797 1379.11 703.023 1386.12 703.023Z" fill="#373B3C"/>
<path fill-rule="evenodd" clip-rule="evenodd" d="M137.97 243.459L137.999 246.598C138.047 252.074 135.969 257.344 132.223 261.251C128.477 265.157 123.37 267.38 118.025 267.431L56.365 267.999C53.7181 268.024 51.0925 267.514 48.6379 266.499C46.1834 265.484 43.948 263.984 42.0596 262.084C40.1711 260.184 38.6665 257.921 37.6317 255.426C36.5968 252.93 36.052 250.25 36.0283 247.539L36.0008 244.402C35.9768 241.691 36.4744 239.001 37.4652 236.487C38.456 233.972 39.9206 231.683 41.7754 229.748C43.6301 227.814 45.8387 226.272 48.275 225.212C50.7113 224.152 53.3276 223.594 55.9745 223.569L117.634 223.001C120.281 222.976 122.906 223.486 125.361 224.501C127.815 225.515 130.05 227.016 131.939 228.915C133.827 230.815 135.332 233.077 136.366 235.572C137.401 238.068 137.946 240.747 137.97 243.459Z" fill="#FF9704" stroke="#FF9704"/>
<path fill-rule="evenodd" clip-rule="evenodd" d="M183.121 137.657L180.936 139.876C179.048 141.793 176.8 143.32 174.321 144.371C171.841 145.422 169.178 145.975 166.483 145.999C163.789 146.023 161.116 145.518 158.618 144.513C156.119 143.507 153.844 142.02 151.922 140.137L107.14 96.2774C105.218 94.3946 103.686 92.1526 102.633 89.6796C101.58 87.2065 101.025 84.5508 101.001 81.864C100.977 79.1772 101.483 76.5119 102.492 74.0204C103.501 71.5289 104.992 69.26 106.88 67.3431L109.065 65.1243C110.953 63.2072 113.201 61.6798 115.681 60.6291C118.161 59.5784 120.824 59.0251 123.518 59.0008C126.212 58.9765 128.885 59.4817 131.383 60.4874C133.882 61.4932 136.157 62.9799 138.08 64.8626L182.859 108.723C184.781 110.605 186.313 112.847 187.366 115.32C188.42 117.793 188.975 120.449 188.999 123.136C189.024 125.822 188.517 128.488 187.508 130.979C186.5 133.471 185.009 135.74 183.121 137.657Z" fill="#FF9704" stroke="#FF9704"/>
<path fill-rule="evenodd" clip-rule="evenodd" d="M288.541 102.972L285.402 102.999C282.691 103.023 280.002 102.526 277.487 101.535C274.973 100.544 272.684 99.0797 270.75 97.2251C268.815 95.3705 267.274 93.162 266.214 90.7259C265.154 88.2897 264.596 85.6736 264.572 83.0269L264.001 21.3661C263.976 18.7191 264.486 16.0932 265.501 13.6385C266.516 11.1838 268.016 8.9483 269.916 7.05968C271.816 5.17107 274.078 3.66631 276.574 2.63136C279.07 1.59641 281.75 1.05154 284.461 1.02784L287.598 1.00083C290.309 0.976792 292.999 1.47439 295.513 2.46524C298.028 3.45609 300.318 4.92078 302.252 6.77565C304.187 8.63051 305.728 10.8392 306.788 13.2757C307.848 15.7121 308.406 18.3286 308.431 20.9756L308.999 82.6364C309.048 87.9815 306.921 93.1269 303.084 96.9406C299.248 100.754 294.017 102.924 288.541 102.972Z" fill="#FF9704" stroke="#FF9704"/>
<path fill-rule="evenodd" clip-rule="evenodd" d="M109.343 428.121L107.124 425.936C105.207 424.048 103.68 421.8 102.629 419.32C101.578 416.84 101.025 414.177 101.001 411.483C100.977 408.789 101.482 406.116 102.487 403.617C103.493 401.119 104.98 398.843 106.863 396.921L150.724 352.139C154.526 348.258 159.711 346.05 165.136 346.001C170.562 345.952 175.785 348.067 179.656 351.879L181.878 354.064C185.749 357.878 187.951 363.077 187.999 368.518C188.048 373.959 185.939 379.197 182.137 383.079L138.278 427.861C134.475 431.742 129.291 433.95 123.864 433.999C118.438 434.048 113.215 431.933 109.343 428.121Z" fill="#FF9704" stroke="#FF9704"/>
<path fill-rule="evenodd" clip-rule="evenodd" d="M469.697 64.9129L471.911 67.1049C475.771 70.9291 477.961 76.137 477.999 81.5833C478.038 87.0295 475.921 92.2681 472.115 96.1467L428.21 140.883C424.403 144.761 419.219 146.961 413.798 146.999C408.377 147.038 403.163 144.912 399.303 141.088L397.088 138.896C395.177 137.003 393.656 134.749 392.611 132.265C391.566 129.781 391.019 127.114 391 124.417C390.982 121.72 391.492 119.046 392.502 116.548C393.512 114.049 395.002 111.774 396.887 109.854L440.793 65.1181C442.677 63.1977 444.919 61.669 447.392 60.6193C449.864 59.5697 452.518 59.0196 455.202 59.0005C457.887 58.9815 460.548 59.4938 463.035 60.5083C465.522 61.5227 467.786 63.0194 469.697 64.9129Z" fill="#FF9704" stroke="#FF9704"/>
<path d="M240.208 380.475C242.211 349.414 261.441 320.724 288.859 305.677C326.312 285.109 363.568 298.481 369.193 300.603C369.11 288.322 370.552 256.107 392.522 225.39C429.664 173.459 491.764 172.96 496.258 173.001C542.398 173.428 579.322 199.175 599.994 228.655C616.412 252.072 621.082 275.709 622.638 288.873C631.439 288.8 652.64 289.809 673.811 303.608C678.678 306.78 708.597 326.995 714.191 366.426C715.083 372.707 718.809 403.83 697.358 432.447C675.907 461.064 645.044 466.149 639.129 467.001H308.224C302.786 465.941 268.373 458.672 250.202 426.28C238.869 406.076 239.803 386.87 240.208 380.475Z" fill="#D4D4D6"/>
<path d="M295.5 125.5C334.827 125.5 370.136 142.764 394.318 170.152C388.265 175.839 382.475 182.349 377.145 189.805C352.493 224.283 350.874 260.442 350.967 274.227C344.654 271.845 302.85 256.836 260.824 279.923C232.292 295.586 211.665 324.42 207.027 356.332C180.297 332.084 163.5 297.011 163.5 258C163.5 184.824 222.597 125.5 295.5 125.5Z" fill="#FF9704"/>
</svg>
