<svg width="253" height="133" viewBox="0 0 253 133" fill="none" xmlns="http://www.w3.org/2000/svg">
<path d="M3.20504 119.51V84.3457H15.201V91.0305H15.5673C16.2999 88.8327 17.5514 87.0929 19.3218 85.8109C21.0922 84.5288 23.1984 83.8878 25.6403 83.8878C28.1127 83.8878 30.2418 84.5441 32.0275 85.8566C33.8131 87.1539 34.8891 88.8785 35.2554 91.0305H35.6217C36.2169 88.8785 37.4837 87.1539 39.4219 85.8566C41.3602 84.5441 43.6343 83.8878 46.2441 83.8878C49.617 83.8878 52.3489 84.9714 54.4398 87.1387C56.546 89.3059 57.5991 92.1904 57.5991 95.7923V119.51H44.9621V98.9973C44.9621 97.4558 44.5729 96.2501 43.7945 95.3802C43.0162 94.495 41.9707 94.0524 40.6582 94.0524C39.3609 94.0524 38.3307 94.495 37.5676 95.3802C36.8198 96.2501 36.4458 97.4558 36.4458 98.9973V119.51H24.3583V98.9973C24.3583 97.4558 23.9691 96.2501 23.1907 95.3802C22.4124 94.495 21.3669 94.0524 20.0544 94.0524C19.1844 94.0524 18.4366 94.2508 17.8108 94.6476C17.1851 95.0444 16.6967 95.6167 16.3457 96.3646C16.0099 97.0972 15.842 97.9747 15.842 98.9973V119.51H3.20504ZM80.6811 120.151C76.9266 120.151 73.691 119.433 70.9744 117.999C68.273 116.549 66.1897 114.473 64.7246 111.772C63.2747 109.055 62.5497 105.804 62.5497 102.019C62.5497 98.3868 63.2823 95.2123 64.7475 92.4956C66.2126 89.779 68.2806 87.6652 70.9515 86.1543C73.6223 84.6433 76.774 83.8878 80.4063 83.8878C83.0619 83.8878 85.4657 84.2999 87.6177 85.1241C89.7696 85.9482 91.6087 87.1463 93.1349 88.7183C94.6611 90.275 95.8363 92.1675 96.6605 94.3958C97.4846 96.624 97.8967 99.1346 97.8967 101.928V104.858H66.4873V97.8984H86.267C86.2517 96.8911 85.9923 96.0059 85.4886 95.2428C85.0002 94.4645 84.3363 93.8616 83.4969 93.4343C82.6728 92.9917 81.7341 92.7704 80.6811 92.7704C79.6585 92.7704 78.7199 92.9917 77.8652 93.4343C77.0105 93.8616 76.3237 94.4568 75.8048 95.2199C75.3012 95.983 75.0341 96.8759 75.0036 97.8984V105.407C75.0036 106.537 75.2401 107.544 75.7133 108.429C76.1864 109.314 76.8655 110.009 77.7507 110.513C78.6359 111.016 79.7043 111.268 80.9558 111.268C81.8257 111.268 82.6193 111.146 83.3367 110.902C84.0692 110.658 84.695 110.306 85.2139 109.849C85.7328 109.376 86.1144 108.811 86.3586 108.155H97.8967C97.4999 110.596 96.5613 112.718 95.0808 114.519C93.6004 116.304 91.6392 117.693 89.1973 118.685C86.7706 119.662 83.9319 120.151 80.6811 120.151ZM119.903 120.151C116.148 120.151 112.913 119.433 110.196 117.999C107.495 116.549 105.411 114.473 103.946 111.772C102.496 109.055 101.771 105.804 101.771 102.019C101.771 98.3868 102.504 95.2123 103.969 92.4956C105.434 89.779 107.502 87.6652 110.173 86.1543C112.844 84.6433 115.996 83.8878 119.628 83.8878C122.284 83.8878 124.687 84.2999 126.839 85.1241C128.991 85.9482 130.83 87.1463 132.357 88.7183C133.883 90.275 135.058 92.1675 135.882 94.3958C136.706 96.624 137.118 99.1346 137.118 101.928V104.858H105.709V97.8984H125.489C125.473 96.8911 125.214 96.0059 124.71 95.2428C124.222 94.4645 123.558 93.8616 122.719 93.4343C121.894 92.9917 120.956 92.7704 119.903 92.7704C118.88 92.7704 117.942 92.9917 117.087 93.4343C116.232 93.8616 115.545 94.4568 115.026 95.2199C114.523 95.983 114.256 96.8759 114.225 97.8984V105.407C114.225 106.537 114.462 107.544 114.935 108.429C115.408 109.314 116.087 110.009 116.972 110.513C117.858 111.016 118.926 111.268 120.177 111.268C121.047 111.268 121.841 111.146 122.558 110.902C123.291 110.658 123.917 110.306 124.436 109.849C124.954 109.376 125.336 108.811 125.58 108.155H137.118C136.721 110.596 135.783 112.718 134.302 114.519C132.822 116.304 130.861 117.693 128.419 118.685C125.992 119.662 123.154 120.151 119.903 120.151ZM163.245 84.3457V93.5029H140.077V84.3457H163.245ZM144.564 75.921H157.201V108.2C157.201 108.689 157.285 109.101 157.453 109.437C157.621 109.757 157.88 110.001 158.231 110.169C158.583 110.322 159.033 110.398 159.582 110.398C159.964 110.398 160.406 110.352 160.91 110.261C161.429 110.169 161.81 110.093 162.055 110.032L163.886 118.914C163.321 119.082 162.512 119.288 161.459 119.532C160.422 119.777 159.185 119.937 157.751 120.013C154.851 120.166 152.417 119.868 150.448 119.12C148.479 118.357 146.999 117.159 146.007 115.526C145.015 113.893 144.534 111.848 144.564 109.391V75.921Z" fill="#E4E4E4"/>
<path d="M176.094 132.696C174.644 132.696 173.263 132.581 171.95 132.353C170.638 132.139 169.485 131.841 168.493 131.46L171.24 122.486C172.278 122.852 173.225 123.088 174.079 123.195C174.949 123.302 175.689 123.241 176.3 123.012C176.926 122.783 177.376 122.348 177.651 121.707L177.925 121.066L165.563 84.3457H178.749L184.427 108.704H184.793L190.562 84.3457H203.84L191.02 122.44C190.379 124.378 189.448 126.118 188.227 127.659C187.021 129.216 185.434 130.445 183.465 131.345C181.497 132.246 179.039 132.696 176.094 132.696ZM223.305 120.151C219.49 120.151 216.224 119.395 213.507 117.884C210.79 116.358 208.707 114.236 207.257 111.52C205.807 108.788 205.082 105.621 205.082 102.019C205.082 98.4173 205.807 95.2581 207.257 92.5414C208.707 89.8095 210.79 87.6881 213.507 86.1771C216.224 84.6509 219.49 83.8878 223.305 83.8878C227.121 83.8878 230.387 84.6509 233.103 86.1771C235.82 87.6881 237.903 89.8095 239.353 92.5414C240.803 95.2581 241.528 98.4173 241.528 102.019C241.528 105.621 240.803 108.788 239.353 111.52C237.903 114.236 235.82 116.358 233.103 117.884C230.387 119.395 227.121 120.151 223.305 120.151ZM223.397 110.81C224.465 110.81 225.388 110.451 226.167 109.734C226.945 109.017 227.548 107.994 227.975 106.666C228.403 105.339 228.616 103.759 228.616 101.928C228.616 100.081 228.403 98.5013 227.975 97.1887C227.548 95.8609 226.945 94.8384 226.167 94.1211C225.388 93.4037 224.465 93.0451 223.397 93.0451C222.267 93.0451 221.298 93.4037 220.489 94.1211C219.68 94.8384 219.062 95.8609 218.635 97.1887C218.208 98.5013 217.994 100.081 217.994 101.928C217.994 103.759 218.208 105.339 218.635 106.666C219.062 107.994 219.68 109.017 220.489 109.734C221.298 110.451 222.267 110.81 223.397 110.81Z" fill="#FF9704"/>
<path fill-rule="evenodd" clip-rule="evenodd" d="M22.9275 37.7877L22.9324 38.2771C22.9402 39.1304 22.595 39.9519 21.9725 40.5607C21.35 41.1696 20.5014 41.516 19.6131 41.5239L9.36663 41.6125C8.92677 41.6163 8.49044 41.5368 8.08255 41.3786C7.67466 41.2204 7.30321 40.9866 6.98939 40.6905C6.67557 40.3944 6.42553 40.0418 6.25357 39.6529C6.0816 39.2639 5.99106 38.8463 5.98713 38.4237L5.98256 37.9348C5.97857 37.5122 6.06126 37.093 6.22591 36.7012C6.39056 36.3093 6.63394 35.9525 6.94215 35.651C7.25037 35.3495 7.61739 35.1093 8.02225 34.944C8.4271 34.7788 8.86188 34.6918 9.30174 34.688L19.5482 34.5994C19.988 34.5955 20.4243 34.675 20.8321 34.8331C21.24 34.9913 21.6114 35.2251 21.9252 35.5211C22.239 35.8172 22.4891 36.1698 22.661 36.5587C22.833 36.9476 22.9235 37.3652 22.9275 37.7877Z" fill="#FF9704"/>
<path fill-rule="evenodd" clip-rule="evenodd" d="M30.4308 21.2983L30.0678 21.6441C29.754 21.9429 29.3805 22.1809 28.9684 22.3447C28.5563 22.5084 28.1137 22.5947 27.666 22.5984C27.2183 22.6022 26.7742 22.5235 26.359 22.3668C25.9438 22.21 25.5657 21.9783 25.2462 21.6849L17.8045 14.8492C17.4851 14.5558 17.2306 14.2063 17.0555 13.8209C16.8805 13.4355 16.7883 13.0216 16.7843 12.6028C16.7803 12.1841 16.8645 11.7687 17.0322 11.3804C17.1998 10.9921 17.4476 10.6385 17.7613 10.3397L18.1244 9.99392C18.4381 9.69514 18.8117 9.45708 19.2238 9.29333C19.6359 9.12958 20.0784 9.04335 20.5261 9.03956C20.9739 9.03577 21.418 9.1145 21.8332 9.27125C22.2484 9.428 22.6265 9.6597 22.946 9.95312L30.3872 16.7888C30.7067 17.0822 30.9612 17.4316 31.1363 17.817C31.3114 18.2025 31.4036 18.6164 31.4076 19.0351C31.4117 19.4538 31.3275 19.8692 31.1599 20.2575C30.9923 20.6459 30.7446 20.9995 30.4308 21.2983Z" fill="#FF9704"/>
<path fill-rule="evenodd" clip-rule="evenodd" d="M47.9488 15.8926L47.4271 15.8968C46.9766 15.9005 46.5297 15.823 46.1119 15.6686C45.6941 15.5142 45.3137 15.2859 44.9922 14.9969C44.6708 14.7078 44.4147 14.3637 44.2386 13.984C44.0624 13.6043 43.9697 13.1966 43.9656 12.7841L43.8707 3.1741C43.8667 2.76155 43.9514 2.35231 44.12 1.96974C44.2887 1.58717 44.538 1.23876 44.8537 0.944415C45.1694 0.65007 45.5454 0.41555 45.9601 0.254251C46.3748 0.0929517 46.8202 0.00803251 47.2708 0.00433952L47.7921 0.000129552C48.2426 -0.00361708 48.6896 0.0739345 49.1074 0.22836C49.5253 0.382786 49.9058 0.611063 50.2272 0.900147C50.5487 1.18923 50.8048 1.53346 50.981 1.91319C51.1572 2.29292 51.2499 2.70069 51.254 3.11324L51.3484 12.7232C51.3566 13.5563 51.0031 14.3582 50.3655 14.9526C49.728 15.5469 48.8587 15.8851 47.9488 15.8926Z" fill="#FF9704"/>
<path fill-rule="evenodd" clip-rule="evenodd" d="M18.1706 66.5677L17.8019 66.2272C17.4833 65.933 17.2295 65.5826 17.0549 65.1961C16.8803 64.8096 16.7884 64.3946 16.7843 63.9747C16.7803 63.5548 16.8642 63.1382 17.0314 62.7488C17.1985 62.3594 17.4456 62.0048 17.7584 61.7052L25.0471 54.7259C25.679 54.1209 26.5405 53.7768 27.4422 53.7692C28.3438 53.7616 29.2118 54.0911 29.855 54.6853L30.2242 55.0259C30.8675 55.6202 31.2334 56.4305 31.2415 57.2785C31.2495 58.1265 30.8991 58.9428 30.2673 59.5479L22.979 66.5272C22.347 67.1322 21.4854 67.4763 20.5837 67.4839C19.682 67.4915 18.814 67.162 18.1706 66.5677Z" fill="#FF9704"/>
<path fill-rule="evenodd" clip-rule="evenodd" d="M78.053 9.96096L78.4209 10.3026C79.0624 10.8986 79.4263 11.7103 79.4327 12.5591C79.439 13.4079 79.0873 14.2243 78.4549 14.8288L71.1587 21.8011C70.5262 22.4054 69.6648 22.7483 68.7639 22.7543C67.8631 22.7603 66.9966 22.4289 66.355 21.833L65.9871 21.4914C65.6695 21.1963 65.4166 20.8451 65.2431 20.4579C65.0695 20.0708 64.9785 19.6551 64.9754 19.2348C64.9723 18.8145 65.0571 18.3978 65.2249 18.0083C65.3927 17.6189 65.6403 17.2644 65.9536 16.9652L73.2497 9.99295C73.5629 9.69365 73.9355 9.45539 74.3464 9.2918C74.7572 9.12821 75.1983 9.04248 75.6443 9.03951C76.0904 9.03654 76.5326 9.11639 76.9459 9.27449C77.3592 9.4326 77.7354 9.66586 78.053 9.96096Z" fill="#FF9704"/>
<path d="M39.9171 59.142C40.2499 54.3011 43.4455 49.8298 48.0018 47.4847C54.2257 44.2791 60.4168 46.3632 61.3515 46.6938C61.3377 44.7798 61.5774 39.7591 65.2283 34.9717C71.4004 26.8782 81.7201 26.8004 82.4668 26.8069C90.1341 26.8733 96.2701 30.886 99.7054 35.4806C102.434 39.1303 103.21 42.814 103.468 44.8657C104.931 44.8544 108.454 45.0116 111.972 47.1622C112.781 47.6565 117.753 50.807 118.682 56.9525C118.831 57.9314 119.45 62.782 115.885 67.242C112.32 71.702 107.192 72.4945 106.209 72.6274H51.2198C50.3161 72.4621 44.5975 71.3293 41.5778 66.281C39.6946 63.132 39.8498 60.1387 39.9171 59.142Z" fill="#D4D4D6"/>
<path fill-rule="evenodd" clip-rule="evenodd" d="M49.1055 19.4009C55.6391 19.4009 61.5065 22.0931 65.5254 26.3638C64.52 27.2497 63.5583 28.2639 62.6729 29.4253C58.5765 34.7985 58.3068 40.4338 58.3223 42.5825C57.2718 42.2109 50.3255 39.8726 43.3428 43.4702C38.6011 45.9115 35.1747 50.4064 34.4043 55.3804C29.9638 51.6015 27.172 46.1361 27.1719 40.0542C27.172 28.6435 36.9971 19.401 49.1055 19.4009Z" fill="#FF9704"/>
</svg>
