<svg width="186" height="99" viewBox="0 0 186 99" fill="none" xmlns="http://www.w3.org/2000/svg">
<path d="M2.36223 88.3867V62.4697H11.2037V67.3966H11.4737C12.0136 65.7768 12.936 64.4944 14.2409 63.5496C15.5457 62.6047 17.098 62.1322 18.8978 62.1322C20.7201 62.1322 22.2893 62.6159 23.6054 63.5833C24.9215 64.5394 25.7146 65.8105 25.9845 67.3966H26.2545C26.6932 65.8105 27.6268 64.5394 29.0554 63.5833C30.484 62.6159 32.1601 62.1322 34.0836 62.1322C36.5696 62.1322 38.5831 62.9309 40.1242 64.5282C41.6765 66.1255 42.4527 68.2515 42.4527 70.9062V88.3867H33.1387V73.2684C33.1387 72.1323 32.8519 71.2437 32.2782 70.6025C31.7045 69.9501 30.934 69.6239 29.9666 69.6239C29.0104 69.6239 28.2511 69.9501 27.6887 70.6025C27.1375 71.2437 26.8619 72.1323 26.8619 73.2684V88.3867H17.9529V73.2684C17.9529 72.1323 17.6661 71.2437 17.0924 70.6025C16.5187 69.9501 15.7482 69.6239 14.7808 69.6239C14.1396 69.6239 13.5884 69.7701 13.1273 70.0626C12.6661 70.355 12.3061 70.7769 12.0474 71.328C11.7999 71.868 11.6762 72.5148 11.6762 73.2684V88.3867H2.36223ZM59.4649 88.8592C56.6977 88.8592 54.313 88.3305 52.3107 87.2731C50.3197 86.2045 48.7843 84.6746 47.7044 82.6836C46.6358 80.6813 46.1015 78.2854 46.1015 75.4957C46.1015 72.8185 46.6414 70.4788 47.7213 68.4765C48.8011 66.4742 50.3253 64.9163 52.2939 63.8027C54.2624 62.689 56.5853 62.1322 59.2624 62.1322C61.2197 62.1322 62.9914 62.4359 64.5775 63.0434C66.1635 63.6508 67.519 64.5338 68.6439 65.6924C69.7687 66.8398 70.6349 68.2346 71.2423 69.877C71.8498 71.5193 72.1535 73.3697 72.1535 75.4282V77.588H49.0036V72.4585H63.582C63.5707 71.7161 63.3795 71.0637 63.0083 70.5013C62.6483 69.9276 62.159 69.4833 61.5403 69.1683C60.9329 68.8421 60.2411 68.679 59.4649 68.679C58.7113 68.679 58.0195 68.8421 57.3895 69.1683C56.7596 69.4833 56.2534 69.922 55.871 70.4844C55.4998 71.0468 55.3029 71.7049 55.2804 72.4585V77.9929C55.2804 78.8253 55.4548 79.5677 55.8035 80.2202C56.1522 80.8726 56.6527 81.3844 57.3052 81.7556C57.9576 82.1268 58.745 82.3124 59.6674 82.3124C60.3086 82.3124 60.8935 82.2224 61.4222 82.0424C61.9621 81.8625 62.4233 81.6037 62.8058 81.2663C63.1882 80.9176 63.4695 80.5014 63.6494 80.0177H72.1535C71.861 81.8175 71.1692 83.381 70.0781 84.7084C68.987 86.0245 67.5415 87.0481 65.7417 87.7793C63.9532 88.4992 61.8609 88.8592 59.4649 88.8592ZM88.3727 88.8592C85.6055 88.8592 83.2208 88.3305 81.2185 87.2731C79.2275 86.2045 77.6921 84.6746 76.6122 82.6836C75.5436 80.6813 75.0092 78.2854 75.0092 75.4957C75.0092 72.8185 75.5492 70.4788 76.6291 68.4765C77.7089 66.4742 79.2331 64.9163 81.2017 63.8027C83.1702 62.689 85.493 62.1322 88.1702 62.1322C90.1275 62.1322 91.8992 62.4359 93.4853 63.0434C95.0713 63.6508 96.4268 64.5338 97.5517 65.6924C98.6765 66.8398 99.5427 68.2346 100.15 69.877C100.758 71.5193 101.061 73.3697 101.061 75.4282V77.588H77.9114V72.4585H92.4897C92.4785 71.7161 92.2873 71.0637 91.9161 70.5013C91.5561 69.9276 91.0668 69.4833 90.4481 69.1683C89.8407 68.8421 89.1489 68.679 88.3727 68.679C87.6191 68.679 86.9273 68.8421 86.2973 69.1683C85.6674 69.4833 85.1612 69.922 84.7788 70.4844C84.4075 71.0468 84.2107 71.7049 84.1882 72.4585V77.9929C84.1882 78.8253 84.3625 79.5677 84.7113 80.2202C85.06 80.8726 85.5605 81.3844 86.213 81.7556C86.8654 82.1268 87.6528 82.3124 88.5752 82.3124C89.2164 82.3124 89.8013 82.2224 90.33 82.0424C90.8699 81.8625 91.3311 81.6037 91.7136 81.2663C92.096 80.9176 92.3773 80.5014 92.5572 80.0177H101.061C100.769 81.8175 100.077 83.381 98.9859 84.7084C97.8948 86.0245 96.4493 87.0481 94.6495 87.7793C92.861 88.4992 90.7687 88.8592 88.3727 88.8592ZM120.318 62.4697V69.2189H103.242V62.4697H120.318ZM106.549 56.2604H115.863V80.0514C115.863 80.4114 115.925 80.7151 116.049 80.9626C116.173 81.1988 116.364 81.3788 116.622 81.5025C116.881 81.615 117.213 81.6712 117.618 81.6712C117.899 81.6712 118.225 81.6375 118.597 81.57C118.979 81.5025 119.26 81.4463 119.44 81.4013L120.79 87.948C120.374 88.0718 119.778 88.2236 119.002 88.4036C118.237 88.5836 117.326 88.7017 116.268 88.7579C114.131 88.8704 112.337 88.6511 110.886 88.0999C109.435 87.5374 108.343 86.6544 107.612 85.4508C106.881 84.2472 106.527 82.7399 106.549 80.9288V56.2604Z" fill="#272E34"/>
<path d="M129.788 98.1056C128.719 98.1056 127.701 98.0212 126.734 97.8525C125.766 97.695 124.917 97.4757 124.186 97.1945L126.211 90.5802C126.975 90.8502 127.673 91.0245 128.303 91.1033C128.944 91.182 129.49 91.137 129.94 90.9683C130.401 90.7996 130.733 90.479 130.935 90.0065L131.138 89.5341L122.026 62.4697H131.745L135.929 80.4226H136.199L140.451 62.4697H150.238L140.789 90.5465C140.316 91.9751 139.63 93.2574 138.73 94.3935C137.842 95.5409 136.672 96.4464 135.221 97.1101C133.77 97.7738 131.959 98.1056 129.788 98.1056ZM164.584 88.8592C161.772 88.8592 159.365 88.3024 157.362 87.1887C155.36 86.0639 153.825 84.5003 152.756 82.498C151.688 80.4845 151.153 78.1504 151.153 75.4957C151.153 72.841 151.688 70.5125 152.756 68.5102C153.825 66.4967 155.36 64.9331 157.362 63.8195C159.365 62.6947 161.772 62.1322 164.584 62.1322C167.396 62.1322 169.804 62.6947 171.806 63.8195C173.808 64.9331 175.344 66.4967 176.412 68.5102C177.481 70.5125 178.015 72.841 178.015 75.4957C178.015 78.1504 177.481 80.4845 176.412 82.498C175.344 84.5003 173.808 86.0639 171.806 87.1887C169.804 88.3024 167.396 88.8592 164.584 88.8592ZM164.652 81.975C165.439 81.975 166.12 81.7106 166.693 81.1819C167.267 80.6532 167.711 79.8996 168.026 78.9209C168.341 77.9423 168.499 76.778 168.499 75.4282C168.499 74.0671 168.341 72.9029 168.026 71.9355C167.711 70.9568 167.267 70.2032 166.693 69.6745C166.12 69.1458 165.439 68.8814 164.652 68.8814C163.819 68.8814 163.105 69.1458 162.509 69.6745C161.913 70.2032 161.457 70.9568 161.142 71.9355C160.827 72.9029 160.67 74.0671 160.67 75.4282C160.67 76.778 160.827 77.9423 161.142 78.9209C161.457 79.8996 161.913 80.6532 162.509 81.1819C163.105 81.7106 163.819 81.975 164.652 81.975Z" fill="#FF9704"/>
<path fill-rule="evenodd" clip-rule="evenodd" d="M16.8983 27.851L16.9019 28.2117C16.9077 28.8406 16.6532 29.4461 16.1945 29.8948C15.7357 30.3436 15.1102 30.5989 14.4555 30.6047L6.90346 30.67C6.57927 30.6728 6.25768 30.6142 5.95705 30.4976C5.65642 30.381 5.38265 30.2087 5.15135 29.9905C4.92005 29.7722 4.73577 29.5124 4.60902 29.2257C4.48228 28.939 4.41555 28.6312 4.41265 28.3197L4.40928 27.9594C4.40634 27.6479 4.46729 27.339 4.58864 27.0502C4.70999 26.7614 4.88937 26.4983 5.11654 26.2761C5.3437 26.0539 5.61421 25.8769 5.91261 25.7551C6.211 25.6333 6.53144 25.5692 6.85564 25.5664L14.4076 25.5011C14.7318 25.4982 15.0534 25.5568 15.354 25.6734C15.6546 25.7899 15.9283 25.9622 16.1596 26.1805C16.3909 26.3987 16.5752 26.6585 16.7019 26.9452C16.8287 27.2318 16.8954 27.5396 16.8983 27.851Z" fill="#FF9704"/>
<path fill-rule="evenodd" clip-rule="evenodd" d="M22.4287 15.6978L22.1611 15.9527C21.9299 16.1729 21.6545 16.3484 21.3508 16.4691C21.0471 16.5897 20.7209 16.6533 20.3909 16.6561C20.0609 16.6589 19.7336 16.6009 19.4276 16.4853C19.1216 16.3698 18.8429 16.199 18.6074 15.9828L13.1226 10.9446C12.8872 10.7283 12.6996 10.4708 12.5706 10.1867C12.4416 9.90265 12.3737 9.59759 12.3707 9.28896C12.3677 8.98032 12.4298 8.67417 12.5534 8.38797C12.6769 8.10178 12.8595 7.84115 13.0908 7.62096L13.3584 7.36609C13.5896 7.14588 13.865 6.97042 14.1687 6.84973C14.4724 6.72904 14.7986 6.66549 15.1286 6.66269C15.4586 6.6599 15.7859 6.71793 16.0919 6.83346C16.3979 6.94899 16.6766 7.11976 16.9121 7.33602L22.3966 12.3742C22.632 12.5904 22.8196 12.848 22.9486 13.132C23.0777 13.4161 23.1456 13.7211 23.1486 14.0298C23.1516 14.3384 23.0896 14.6446 22.966 14.9308C22.8425 15.217 22.6599 15.4776 22.4287 15.6978Z" fill="#FF9704"/>
<path fill-rule="evenodd" clip-rule="evenodd" d="M35.34 11.7134L34.9555 11.7165C34.6235 11.7193 34.2941 11.6621 33.9862 11.5483C33.6782 11.4345 33.3978 11.2663 33.1609 11.0533C32.924 10.8402 32.7352 10.5865 32.6054 10.3067C32.4756 10.0269 32.4072 9.72636 32.4043 9.42233L32.3343 2.33943C32.3313 2.03537 32.3937 1.73374 32.5181 1.45177C32.6424 1.1698 32.8261 0.913012 33.0588 0.696069C33.2915 0.479126 33.5686 0.306276 33.8743 0.187392C34.1799 0.0685089 34.5082 0.00592026 34.8403 0.00319839L35.2245 9.54848e-05C35.5566 -0.00266593 35.886 0.0544925 36.194 0.16831C36.5019 0.282128 36.7824 0.450376 37.0193 0.663442C37.2562 0.876508 37.445 1.13022 37.5749 1.41009C37.7047 1.68996 37.7731 1.99051 37.776 2.29457L37.8457 9.37748C37.8517 9.99147 37.5911 10.5825 37.1212 11.0206C36.6513 11.4587 36.0106 11.7079 35.34 11.7134Z" fill="#FF9704"/>
<path fill-rule="evenodd" clip-rule="evenodd" d="M13.3925 49.063L13.1207 48.812C12.8859 48.5952 12.6988 48.3369 12.5701 48.0521C12.4415 47.7672 12.3737 47.4613 12.3707 47.1518C12.3677 46.8423 12.4296 46.5353 12.5528 46.2483C12.676 45.9613 12.8581 45.7 13.0887 45.4791L18.4607 40.3351C18.9264 39.8892 19.5614 39.6356 20.2259 39.63C20.8905 39.6244 21.5302 39.8673 22.0043 40.3052L22.2764 40.5562C22.7505 40.9942 23.0202 41.5914 23.0262 42.2165C23.0321 42.8415 22.7738 43.4431 22.3081 43.8891L16.9364 49.0331C16.4706 49.479 15.8356 49.7326 15.171 49.7382C14.5064 49.7438 13.8667 49.501 13.3925 49.063Z" fill="#FF9704"/>
<path fill-rule="evenodd" clip-rule="evenodd" d="M57.5279 7.3418L57.7991 7.5936C58.2718 8.03288 58.5401 8.63111 58.5447 9.25671C58.5494 9.88232 58.2902 10.4841 57.8241 10.9296L52.4465 16.0684C51.9803 16.5138 51.3454 16.7666 50.6815 16.771C50.0175 16.7754 49.3789 16.5312 48.9061 16.092L48.6349 15.8402C48.4008 15.6227 48.2144 15.3638 48.0865 15.0785C47.9585 14.7931 47.8915 14.4868 47.8892 14.177C47.8869 13.8672 47.9494 13.56 48.0731 13.273C48.1968 12.986 48.3793 12.7247 48.6101 12.5042L53.9877 7.36538C54.2185 7.14478 54.4931 6.96918 54.796 6.84861C55.0988 6.72803 55.4239 6.66485 55.7526 6.66266C56.0813 6.66047 56.4073 6.71932 56.7119 6.83585C57.0165 6.95238 57.2938 7.1243 57.5279 7.3418Z" fill="#FF9704"/>
<path d="M29.4205 43.5899C29.6658 40.022 32.0211 36.7265 35.3792 34.9981C39.9664 32.6354 44.5295 34.1715 45.2184 34.4152C45.2082 33.0045 45.3849 29.304 48.0757 25.7755C52.6248 19.8103 60.2308 19.753 60.7812 19.7577C66.4323 19.8067 70.9547 22.7642 73.4866 26.1506C75.4974 28.8405 76.0694 31.5556 76.2601 33.0678C77.3379 33.0594 79.9347 33.1753 82.5276 34.7604C83.1238 35.1247 86.7882 37.4467 87.4733 41.9762C87.5826 42.6977 88.0389 46.2727 85.4117 49.5599C82.7844 52.8471 79.0043 53.4312 78.2798 53.5292H37.751C37.0849 53.4073 32.8701 52.5724 30.6445 48.8516C29.2565 46.5307 29.3709 44.3245 29.4205 43.5899Z" fill="#272E34"/>
<path d="M36.1924 14.2991C41.0078 14.2992 45.3326 16.2833 48.2949 19.4309C47.5538 20.0839 46.8451 20.8316 46.1924 21.6877C43.1731 25.6482 42.9749 29.8015 42.9863 31.385C42.2133 31.1115 37.0926 29.3873 31.9453 32.0393C28.4508 33.8385 25.9254 37.1509 25.3574 40.8167C22.0851 38.0317 20.0275 34.004 20.0273 29.5217C20.0273 21.1116 27.2682 14.2993 36.1924 14.2991Z" fill="#FF9704"/>
</svg>
